<svg width="16" height="16" viewBox="0 0 16 16" fill="none" xmlns="http://www.w3.org/2000/svg">
<path opacity="0.1" d="M3 13L8 8L13 13C12.1667 13.5 10 14.6 8 15C6 15.4 3.83333 13.8333 3 13Z" fill="#005AFF"/>
<path fill-rule="evenodd" clip-rule="evenodd" d="M15.367 11.1243L13.7964 9.55373C14.3309 7.55203 13.813 5.32774 12.2426 3.75736C9.89949 1.41421 6.1005 1.41421 3.75736 3.75736C2.18698 5.32774 1.66907 7.55203 2.20363 9.55373L0.63302 11.1243C-0.600921 8.21205 -0.0308785 4.71717 2.34315 2.34315C5.46734 -0.781049 10.5327 -0.781049 13.6569 2.34315C16.0309 4.71717 16.6009 8.21205 15.367 11.1243ZM8 6.58579L14.3202 12.906C14.1174 13.1665 13.8963 13.4174 13.6569 13.6569C10.5327 16.781 5.46734 16.781 2.34315 13.6569C2.10368 13.4174 1.88256 13.1665 1.6798 12.906L8 6.58579ZM8 9.41421L11.4769 12.8911C9.40221 14.3696 6.59779 14.3696 4.52313 12.8911L8 9.41421Z" fill="#005AFF"/>
</svg>
