<?xml version="1.0" encoding="UTF-8"?>
<svg width="16px" height="16px" viewBox="0 0 16 16" version="1.1" xmlns="http://www.w3.org/2000/svg" xmlns:xlink="http://www.w3.org/1999/xlink">
    <title>level-16px</title>
    <g id="level-16px" stroke="none" stroke-width="1" fill="none" fill-rule="evenodd">
        <g id="842832a783c0b48327f08963558a3f22" transform="translate(-1.000000, 0.000000)">
            <path d="M14.6082206,10.1118207 L17.2001249,11.4527351 L9.04749823,15.5553059 L0.752336432,11.549281 L3.24625352,10.275624 L3.429,10.633 L3.43487795,10.62376 L9.029,13.325 L14.324,10.661 L14.6082206,10.1118207 Z M14.6082206,7.11182072 L17.2001248,8.45273519 L9.04749823,12.5553059 L0.752336261,8.54928086 L3.24625359,7.27562396 L3.429,7.633 L3.43487796,7.62375997 L9.029,10.325 L14.324,7.661 L14.6082206,7.11182072 Z M9.03506363,0.878842272 L17.2246262,5 L9.04749823,9.11490038 L0.752336257,5.1088753 L9.03506363,0.878842272 Z M9.041,3.121 L5.247,5.058 L9.028,6.884 L12.774,4.999 L9.041,3.121 Z" id="形状结合" fill="#00A4FF" fill-rule="nonzero"></path>
            <rect id="Rectangle-Copy" fill="#444444" opacity="0" x="1" y="0" width="16" height="16"></rect>
        </g>
    </g>
</svg>