<?xml version="1.0" encoding="UTF-8"?>
<svg width="32px" height="32px" viewBox="0 0 32 32" version="1.1" xmlns="http://www.w3.org/2000/svg" xmlns:xlink="http://www.w3.org/1999/xlink">
    <!-- Generator: Sketch 60.1 (88133) - https://sketch.com -->
    <title>gsd-icon-line-edit-delete</title>
    <desc>Created with Sketch.</desc>
    <defs>
        <rect id="path-1" x="0" y="0" width="32" height="32"></rect>
    </defs>
    <g id="组件规范" stroke="none" stroke-width="1" fill="none" fill-rule="evenodd">
        <g id="03图标" transform="translate(-359.000000, -1864.000000)">
            <g id="icon/line/edit/delete" transform="translate(359.000000, 1864.000000)">
                <g id="路径" stroke-width="1">
                    <mask id="mask-2" fill="white">
                        <use xlink:href="#path-1"></use>
                    </mask>
                    <use id="蒙版" fill="#D8D8D8" opacity="0" xlink:href="#path-1"></use>
                </g>
                <path d="M16,2.03125 C19.1954305,2.03125 21.8012929,4.55549164 21.9323308,7.71871875 L28.21875,7.71875 C28.3568212,7.71875 28.46875,7.83067881 28.46875,7.96875 L28.46875,9.71875 C28.46875,9.85682119 28.3568212,9.96875 28.21875,9.96875 L26.21875,9.96875 L26.21875,28.25 C26.21875,28.3880712 26.1068212,28.5 25.96875,28.5 L6.03125,28.5 C5.89317881,28.5 5.78125,28.3880712 5.78125,28.25 L5.78125,9.96875 L3.78125,9.96875 C3.64317881,9.96875 3.53125,9.85682119 3.53125,9.71875 L3.53125,7.96875 C3.53125,7.83067881 3.64317881,7.71875 3.78125,7.71875 L10.0676696,7.71871041 C10.1987117,4.55548721 12.8045723,2.03125 16,2.03125 Z M23.96875,9.96875 L8.03125,9.96875 L8.03125,26.25 L23.96875,26.25 L23.96875,9.96875 Z M13.59375,14.125 C13.7318212,14.125 13.84375,14.2369288 13.84375,14.375 L13.84375,21.75 C13.84375,21.8880712 13.7318212,22 13.59375,22 L11.84375,22 C11.7056788,22 11.59375,21.8880712 11.59375,21.75 L11.59375,14.375 C11.59375,14.2369288 11.7056788,14.125 11.84375,14.125 L13.59375,14.125 Z M20.15625,14.125 C20.2943212,14.125 20.40625,14.2369288 20.40625,14.375 L20.40625,21.75 C20.40625,21.8880712 20.2943212,22 20.15625,22 L18.40625,22 C18.2681788,22 18.15625,21.8880712 18.15625,21.75 L18.15625,14.375 C18.15625,14.2369288 18.2681788,14.125 18.40625,14.125 L20.15625,14.125 Z M16,4.28125 C14.0474722,4.28125 12.4493833,5.79878324 12.3208416,7.7187489 L19.6791589,7.7187489 C19.550621,5.79878725 17.9525304,4.28125 16,4.28125 Z" id="形状" fill="#1D1F24"></path>
            </g>
            <g id="icon切图" transform="translate(226.000000, 1782.000000)"></g>
        </g>
    </g>
</svg>