<svg width="16" height="16" viewBox="0 0 16 16" fill="none" xmlns="http://www.w3.org/2000/svg">
<path fill-rule="evenodd" clip-rule="evenodd" d="M1 2V14H9V12H3V9H9V7H3V4H9V2H1ZM13 11C11.896 11 11 11.896 11 13C11 14.104 11.896 15 13 15C14.104 15 15 14.104 15 13C15 11.896 14.104 11 13 11ZM13 6C11.896 6 11 6.896 11 8C11 9.104 11.896 10 13 10C14.104 10 15 9.104 15 8C15 6.896 14.104 6 13 6ZM11 3C11 1.896 11.896 1 13 1C14.104 1 15 1.896 15 3C15 4.104 14.104 5 13 5C11.896 5 11 4.104 11 3Z" fill="#005AFF"/>
</svg>
