<?xml version="1.0" encoding="UTF-8"?>
<svg width="16px" height="16px" viewBox="0 0 16 16" version="1.1" xmlns="http://www.w3.org/2000/svg" xmlns:xlink="http://www.w3.org/1999/xlink">
    <title>知识建设-16</title>
    <g id="知识建设-16" stroke="none" stroke-width="1" fill="none" fill-rule="evenodd">
        <rect id="Rectangle-Copy" fill="#444444" opacity="0" x="0" y="0" width="16" height="16"></rect>
        <path d="M15,1 L15,8.276 L13,7.134 L13,3 L3,3 L3,13 L8,13 L8,14.5803225 L8.735,15 L1,15 L1,1 L15,1 Z" id="形状结合" fill="#0052d9" fill-rule="nonzero"></path>
        <polygon id="路径" fill="#0052d9" fill-rule="nonzero" points="3 5 13 5 13 7 3 7"></polygon>
        <path d="M12.5,8 L16,10 L16,14 L12.5,16 L9,14 L9,10 L12.5,8 Z M12.5,10.5 C11.672,10.5 11,11.171 11,12 C11,12.829 11.672,13.5 12.5,13.5 C13.328,13.5 14,12.829 14,12 C14,11.171 13.328,10.5 12.5,10.5 Z" id="形状结合" fill="#0052d9" fill-rule="nonzero"></path>
    </g>
</svg>