<svg width="16" height="16" viewBox="0 0 16 16" fill="none" xmlns="http://www.w3.org/2000/svg">
<g clip-path="url(#clip0_421_6226)">
<path d="M10.001 0.333984C12.0256 0.334424 13.667 1.9762 13.667 4.00098V4.56836C14.1275 4.84557 14.5284 5.20511 14.8486 5.64551C15.4301 6.44512 15.667 7.39224 15.667 8.33398C15.667 9.52176 15.1494 10.5834 14.334 11.3135V11.667C14.334 13.876 12.5429 15.6667 10.334 15.667C9.463 15.667 8.65645 15.3882 8 14.916C7.34378 15.3879 6.53757 15.6669 5.66699 15.667C3.45801 15.6668 1.66699 13.876 1.66699 11.667V11.3125C0.85181 10.5825 0.333008 9.52159 0.333008 8.33398C0.333008 7.3922 0.570888 6.44514 1.15234 5.64551C1.47251 5.20535 1.87367 4.84647 2.33398 4.56934V4.00098C2.33398 1.97593 3.97593 0.333984 6.00098 0.333984C6.73851 0.334146 7.42519 0.554011 8 0.928711C8.57513 0.553645 9.26289 0.333984 10.001 0.333984ZM6.00098 2.33398C5.0805 2.33398 4.33398 3.0805 4.33398 4.00098V5.85938L3.70703 6.11133C3.30165 6.27435 2.99243 6.5164 2.77051 6.82129C2.48696 7.21115 2.33398 7.72215 2.33398 8.33398C2.33398 9.02916 2.68597 9.63845 3.22363 9.99805L3.66699 10.2949V11.667C3.66699 12.7715 4.56257 13.6668 5.66699 13.667C6.18007 13.6669 6.64623 13.4721 7.00098 13.1533V11H7C7 9.89543 6.10457 9 5 9V7C5.72906 7 6.41237 7.19537 7.00098 7.53613V2.66797C6.72213 2.45809 6.37625 2.33416 6.00098 2.33398ZM10.001 2.33398C9.62593 2.33398 9.27981 2.45751 9.00098 2.66699V7.53516C9.58916 7.19507 10.2717 7 11 7V9C9.90162 9 9.01094 9.88542 9.00098 10.9814V13.1543C9.3557 13.4726 9.82127 13.667 10.334 13.667C11.4383 13.6667 12.334 12.7714 12.334 11.667V10.2949L12.7783 9.99707C13.3156 9.63742 13.667 9.02886 13.667 8.33398C13.667 7.72228 13.5149 7.21112 13.2314 6.82129C13.0096 6.51625 12.6994 6.27445 12.2939 6.11133L11.667 5.85938V4.00098C11.667 3.08078 10.9211 2.33442 10.001 2.33398Z" fill="#7C878E"/>
</g>
<defs>
<clipPath id="clip0_421_6226">
<rect width="16" height="16" fill="white"/>
</clipPath>
</defs>
</svg>
