<?xml version="1.0" encoding="UTF-8"?>
<svg width="24px" height="24px" viewBox="0 0 24 24" version="1.1" xmlns="http://www.w3.org/2000/svg" xmlns:xlink="http://www.w3.org/1999/xlink">
    <title>卡证文字识别 Card OCR-24px</title>
    <g id="卡证文字识别-Card-OCR-24px" stroke="none" stroke-width="1" fill="none" fill-rule="evenodd">
        <g id="编组">
            <path d="M2,7 L2,20 L20.2676063,19.9999275 C20.6134261,19.4021661 21.2597476,19 22,19 C23.1045695,19 24,19.8954305 24,21 C24,22.1045695 23.1045695,23 22,23 C21.2601625,23 20.6141507,22.5982846 20.2681881,22.0010775 L0,22 L0,7 L2,7 Z M9.9455598,13 C12.0798642,13 13.8839509,14.5072984 13.9946221,16.4632005 L14,16.6538462 L14,18 L3,18 L3,16.6538462 C3,14.6701036 4.73738972,13.1008133 6.84897123,13.0046699 L7.0544402,13 L9.9455598,13 Z M20.5,15.5 L20.5,17.5 L16.5,17.5 L16.5,15.5 L20.5,15.5 Z M2,1 C2.74025244,1 3.38657394,1.40216612 3.73239368,1.99992752 L24,2 L24,17 L22,17 L22,4 L3.73181186,4.0010775 C3.38584934,4.59828461 2.7398375,5 2,5 C0.8954305,5 0,4.1045695 0,3 C0,1.8954305 0.8954305,1 2,1 Z M9.9455598,15 L7.0544402,15 C6.29175797,15 5.64168355,15.3385755 5.28728404,15.8200673 L5.20495,15.9433045 L5.173,16 L11.826,16 L11.79505,15.9433045 C11.5134269,15.4762152 10.9646977,15.117892 10.2946232,15.0241218 L10.1089765,15.0052244 L9.9455598,15 Z M20.5,11.5 L20.5,13.5 L16.5,13.5 L16.5,11.5 L20.5,11.5 Z M8.5,6.5 C10.1517235,6.5 11.5,7.84827645 11.5,9.5 C11.5,11.1614647 10.1607319,12.5 8.5,12.5 C6.84827645,12.5 5.5,11.1517235 5.5,9.5 C5.5,7.84827645 6.84827645,6.5 8.5,6.5 Z M8.5,8.5 C7.95284595,8.5 7.5,8.95284595 7.5,9.5 C7.5,10.0471541 7.95284595,10.5 8.5,10.5 C9.05640736,10.5 9.5,10.0566501 9.5,9.5 C9.5,8.95284595 9.04715405,8.5 8.5,8.5 Z M20.5,7.5 L20.5,9.5 L14.5,9.5 L14.5,7.5 L20.5,7.5 Z" id="形状结合" fill="#0052D9" fill-rule="nonzero"></path>
            <rect id="矩形" x="0" y="0" width="24" height="24"></rect>
        </g>
    </g>
</svg>